<?xml version="1.0" encoding="UTF-8" standalone="no"?>
<!DOCTYPE svg PUBLIC "-//W3C//DTD SVG 1.1//EN" "http://www.w3.org/Graphics/SVG/1.1/DTD/svg11.dtd">
<svg width="100%" height="100%" viewBox="0 0 50 53" version="1.1" xmlns="http://www.w3.org/2000/svg" xmlns:xlink="http://www.w3.org/1999/xlink" xml:space="preserve" xmlns:serif="http://www.serif.com/" style="fill-rule:evenodd;clip-rule:evenodd;stroke-linejoin:round;stroke-miterlimit:2;">
    <path d="M47.614,16.34L46.855,16.34L46.855,11.414C46.855,11.112 46.608,10.864 46.305,10.864L31.031,10.864C28.337,10.864 26.017,12.497 25,14.823C23.983,12.497 21.663,10.864 18.969,10.864L3.695,10.864C3.392,10.864 3.145,11.112 3.145,11.414L3.145,16.34L2.386,16.34C1.072,16.34 0,17.407 0,18.727L0,46.261C0,47.575 1.072,48.647 2.386,48.647L20.354,48.647C20.624,50.973 22.608,52.782 25,52.782C27.392,52.782 29.377,50.973 29.646,48.647L47.614,48.647C48.928,48.647 50,47.575 50,46.261L50,18.727C50,17.407 48.928,16.34 47.614,16.34ZM24.45,43.386C23.268,41.615 21.25,40.444 18.969,40.444L4.244,40.444L4.244,11.964L18.969,11.964C21.613,11.964 23.823,13.844 24.34,16.34C24.346,16.395 24.505,17.991 24.45,17.44L24.45,43.386ZM45.755,40.444L31.031,40.444C28.75,40.444 26.732,41.615 25.55,43.386L25.55,17.44C25.555,17.385 25.715,15.788 25.66,16.34C26.177,13.844 28.387,11.964 31.031,11.964L45.755,11.964L45.755,40.444Z" style="fill:rgb(171,12,47);fill-rule:nonzero;"/>
    <path d="M8.17,22.095L20.526,22.095C20.83,22.095 21.075,21.849 21.075,21.545C21.075,21.241 20.83,20.995 20.526,20.995L8.17,20.995C7.866,20.995 7.62,21.241 7.62,21.545C7.62,21.849 7.866,22.095 8.17,22.095Z" style="fill:rgb(171,12,47);fill-rule:nonzero;"/>
    <path d="M8.17,26.755L20.526,26.755C20.83,26.755 21.075,26.509 21.075,26.205C21.075,25.901 20.83,25.655 20.526,25.655L8.17,25.655C7.866,25.655 7.62,25.901 7.62,26.205C7.62,26.509 7.866,26.755 8.17,26.755Z" style="fill:rgb(171,12,47);fill-rule:nonzero;"/>
    <path d="M8.17,31.413L20.526,31.413C20.83,31.413 21.075,31.168 21.075,30.864C21.075,30.56 20.83,30.314 20.526,30.314L8.17,30.314C7.866,30.314 7.62,30.56 7.62,30.864C7.62,31.168 7.866,31.413 8.17,31.413Z" style="fill:rgb(171,12,47);fill-rule:nonzero;"/>
    <path d="M20.526,34.973L8.17,34.973C7.866,34.973 7.62,35.219 7.62,35.523C7.62,35.826 7.866,36.072 8.17,36.072L20.526,36.072C20.83,36.072 21.075,35.827 21.075,35.523C21.075,35.219 20.83,34.973 20.526,34.973Z" style="fill:rgb(171,12,47);fill-rule:nonzero;"/>
    <path d="M29.474,22.095L41.83,22.095C42.134,22.095 42.38,21.849 42.38,21.545C42.38,21.241 42.134,20.995 41.83,20.995L29.474,20.995C29.17,20.995 28.924,21.241 28.924,21.545C28.924,21.849 29.17,22.095 29.474,22.095Z" style="fill:rgb(171,12,47);fill-rule:nonzero;"/>
    <path d="M29.474,26.755L41.83,26.755C42.134,26.755 42.38,26.509 42.38,26.205C42.38,25.901 42.134,25.655 41.83,25.655L29.474,25.655C29.17,25.655 28.924,25.901 28.924,26.205C28.924,26.509 29.17,26.755 29.474,26.755Z" style="fill:rgb(171,12,47);fill-rule:nonzero;"/>
    <path d="M29.474,31.413L41.83,31.413C42.134,31.413 42.38,31.168 42.38,30.864C42.38,30.56 42.134,30.314 41.83,30.314L29.474,30.314C29.17,30.314 28.924,30.56 28.924,30.864C28.924,31.168 29.17,31.413 29.474,31.413Z" style="fill:rgb(171,12,47);fill-rule:nonzero;"/>
    <path d="M29.474,36.072L41.83,36.072C42.134,36.072 42.38,35.827 42.38,35.523C42.38,35.219 42.134,34.973 41.83,34.973L29.474,34.973C29.17,34.973 28.924,35.219 28.924,35.523C28.924,35.826 29.17,36.072 29.474,36.072Z" style="fill:rgb(171,12,47);fill-rule:nonzero;"/>
</svg>
